<svg width="53" height="12" viewBox="0 0 53 12" fill="none" xmlns="http://www.w3.org/2000/svg">
<path d="M8.40073 10.6829H1.61262C1.05601 10.6829 0.604795 10.2317 0.604795 9.67512V4.38402H2.67551C3.34945 4.38402 3.9788 4.04721 4.35263 3.48645L5.97463 1.05346C6.16155 0.773081 6.47623 0.604672 6.8132 0.604672H6.9738C7.59657 0.604672 8.0703 1.16388 7.96791 1.77818L7.53361 4.38402H8.85426C10.1262 4.38402 11.0802 5.54771 10.8308 6.79498L10.3772 9.06259C10.1888 10.0048 9.36156 10.6829 8.40073 10.6829Z" stroke="#7A757C" stroke-width="1.2" stroke-linecap="round" stroke-linejoin="round"/>
<path d="M3.12436 4.38402V10.6829" stroke="#7A757C" stroke-width="1.2"/>
<path d="M29.8171 0.604672H23.029C22.4723 0.604672 22.0211 1.05589 22.0211 1.6125V6.90359H24.0918C24.7658 6.90359 25.3951 7.24041 25.769 7.80116L27.391 10.2342C27.5779 10.5145 27.8926 10.6829 28.2295 10.6829H28.3901C29.0129 10.6829 29.4866 10.1237 29.3842 9.50943L28.9499 6.90359H30.2706C31.5426 6.90359 32.4966 5.73991 32.2471 4.49264L31.7936 2.22502C31.6051 1.28286 30.7779 0.604672 29.8171 0.604672Z" stroke="#7A757C" stroke-width="1.2" stroke-linecap="round" stroke-linejoin="round"/>
<path d="M24.5407 6.90359V0.604672" stroke="#7A757C" stroke-width="1.2"/>
<path d="M50.1563 0.604672H43.4375V7.88341" stroke="#7A757C" stroke-width="1.2" stroke-linecap="round" stroke-linejoin="round"/>
<path d="M45.6765 2.84374H52.3954V9.67456C52.3954 10.2312 51.9441 10.6824 51.3875 10.6824H46.6843C46.1277 10.6824 45.6765 10.2312 45.6765 9.67456V2.84374Z" stroke="#7A757C" stroke-width="1.2" stroke-linecap="round" stroke-linejoin="round"/>
</svg>
