<svg width="120" height="18" viewBox="0 0 120 18" fill="none" xmlns="http://www.w3.org/2000/svg">
<path d="M57.7647 11.9412L57 15L60.0588 14.2353L68.8529 5.44118C69.4864 4.80767 69.4864 3.78056 68.8529 3.14706C68.2194 2.51356 67.1923 2.51355 66.5588 3.14706L57.7647 11.9412Z" stroke="#7A757C" stroke-width="1.3" stroke-linecap="round" stroke-linejoin="round"/>
<path d="M65.4121 4.29419L67.7062 6.58831" stroke="#7A757C" stroke-width="1.3" stroke-linecap="round" stroke-linejoin="round"/>
<path d="M63.8828 15H70.0005" stroke="#7A757C" stroke-width="1.3" stroke-linecap="round" stroke-linejoin="round"/>
<path d="M12.6101 15H4.99976C3.89519 15 2.99976 14.1046 2.99976 13V7.5H5.67939C6.34809 7.5 6.97256 7.1658 7.34349 6.6094L9.0305 4.07888C9.47985 3.40486 10.2363 3 11.0464 3C11.5455 3 11.9251 3.44811 11.843 3.94038L11.2498 7.5H13.3101C14.5722 7.5 15.5188 8.65465 15.2713 9.89223L14.5713 13.3922C14.3843 14.3271 13.5635 15 12.6101 15Z" stroke="#7A757C" stroke-width="1.3" stroke-linecap="round" stroke-linejoin="round"/>
<path d="M6.00024 7.5V15" stroke="#7A757C" stroke-width="1.3"/>
<path d="M38.6101 3H30.9998C29.8952 3 28.9998 3.89543 28.9998 5V10.5H31.6794C32.3481 10.5 32.9726 10.8342 33.3435 11.3906L35.0305 13.9211C35.4799 14.5951 36.2363 15 37.0464 15C37.5455 15 37.9251 14.5519 37.843 14.0596L37.2498 10.5H39.3101C40.5722 10.5 41.5188 9.34535 41.2713 8.10777L40.5713 4.60777C40.3843 3.67292 39.5635 3 38.6101 3Z" stroke="#7A757C" stroke-width="1.3" stroke-linecap="round" stroke-linejoin="round"/>
<path d="M32.0002 10.5V3" stroke="#7A757C" stroke-width="1.3"/>
<path d="M84.0001 9C84.0001 5.68629 86.6864 3 90.0001 3C91.8849 3 93.5668 3.86911 94.6667 5.22844" stroke="#7A757C" stroke-width="1.3" stroke-linecap="round" stroke-linejoin="round"/>
<path d="M95 3L95 5.66667L92.3333 5.66667" stroke="#7A757C" stroke-width="1.3" stroke-linecap="round" stroke-linejoin="round"/>
<path d="M96.0008 9C96.0008 12.3137 93.3145 15 90.0008 15C88.1159 15 86.4341 14.1309 85.3341 12.7716" stroke="#7A757C" stroke-width="1.3" stroke-linecap="round" stroke-linejoin="round"/>
<path d="M85.001 15L85.001 12.3333L87.6676 12.3333" stroke="#7A757C" stroke-width="1.3" stroke-linecap="round" stroke-linejoin="round"/>
<path d="M116.667 3H108.667V11.6667" stroke="#7A757C" stroke-width="1.3" stroke-linecap="round" stroke-linejoin="round"/>
<path d="M111.334 5.66663H119.334V13C119.334 14.1045 118.439 15 117.334 15H113.334C112.229 15 111.334 14.1045 111.334 13V5.66663Z" stroke="#7A757C" stroke-width="1.3" stroke-linecap="round" stroke-linejoin="round"/>
</svg>
