<svg width="36" height="36" viewBox="0 0 36 36" fill="none" xmlns="http://www.w3.org/2000/svg">
<circle cx="18" cy="18" r="2" stroke="#7A757C" stroke-width="1.5"/>
<path d="M11.3986 11.8792C10.4688 12.8813 9.79371 14.0705 9.40061 15.3446L10.9999 16.268C12.3333 17.0378 12.3333 18.9623 10.9999 19.7321L9.3989 20.6564C9.59411 21.2865 9.86207 21.9047 10.2058 22.5C10.5495 23.0953 10.9509 23.6365 11.3989 24.1205L12.9999 23.1962C14.3333 22.4264 15.9999 23.3886 15.9999 24.9282L15.9999 26.775C17.2999 27.0716 18.6673 27.0816 20 26.7774L20 24.9283C20 23.3887 21.6667 22.4264 23 23.1962L24.6014 24.1208C25.5312 23.1187 26.2063 21.9295 26.5994 20.6554L25 19.732C23.6667 18.9622 23.6667 17.0377 25 16.2679L26.6011 15.3435C26.4059 14.7135 26.1379 14.0953 25.7942 13.5C25.4505 12.9047 25.0491 12.3635 24.6011 11.8794L23 12.8038C21.6667 13.5736 20 12.6113 20 11.0717L20 9.22501C18.7001 8.92841 17.3327 8.91847 15.9999 9.2226L15.9999 11.0717C15.9999 12.6113 14.3333 13.5736 12.9999 12.8038L11.3986 11.8792Z" stroke="#7A757C" stroke-width="1.5" stroke-linejoin="round"/>
</svg>
